<?xml version="1.0" encoding="iso-8859-1"?>
<!-- Uploaded to: SVG Repo, www.svgrepo.com, Generator: SVG Repo Mixer Tools -->
<svg fill="#000000" height="800px" width="800px" version="1.1" id="Layer_1" xmlns="http://www.w3.org/2000/svg" xmlns:xlink="http://www.w3.org/1999/xlink" 
	 viewBox="0 0 512 512" xml:space="preserve">
<g>
	<g>
		<path d="M456.952,42.756h-9.086V25.119C447.866,11.268,436.598,0,422.747,0h-34.205c-13.851,0-25.119,11.268-25.119,25.119v17.637
			h-26.188c-4.428,0-8.017,3.588-8.017,8.017c0,4.428,3.588,8.017,8.017,8.017h119.716c14.441,0,26.188,11.747,26.188,26.188
			v273.637c0,14.441-11.747,26.188-26.188,26.188H80.701c-14.44,0-26.188-11.747-26.188-26.188V84.977
			c0-14.441,11.748-26.188,26.188-26.188h222.33c4.428,0,8.017-3.588,8.017-8.017c0-4.428-3.588-8.017-8.017-8.017H80.701
			c-23.281,0-42.221,18.941-42.221,42.221v43.29H20.843c-4.427,0-8.017,3.588-8.017,8.017v51.307c0,4.428,3.589,8.017,8.017,8.017
			H38.48v52.376H20.843c-4.427,0-8.017,3.588-8.017,8.017v51.307c0,4.428,3.589,8.017,8.017,8.017H38.48v43.29
			c0,23.281,18.941,42.221,42.221,42.221h94.597v43.825h-9.086c-32.711,0-59.324,26.612-59.324,59.324
			c0,4.428,3.589,8.017,8.017,8.017h85.511c4.427,0,8.017-3.588,8.017-8.017c0-4.428-3.589-8.017-8.017-8.017h-76.751
			c3.771-20.052,21.414-35.273,42.546-35.273H371.44c21.132,0,38.775,15.221,42.546,35.273H234.622
			c-4.427,0-8.017,3.588-8.017,8.017c0,4.428,3.589,8.017,8.017,8.017h188.125c4.428,0,8.017-3.588,8.017-8.017
			c0-32.711-26.612-59.324-59.324-59.324h-9.086v-43.825h94.597c23.281,0,42.221-18.941,42.221-42.221V84.977
			C499.173,61.697,480.232,42.756,456.952,42.756z M431.833,42.756h-52.376V25.119c0-5.01,4.076-9.086,9.086-9.086h34.205
			c5.01,0,9.086,4.076,9.086,9.086V42.756z M38.48,299.29h-9.62v-35.273h9.62V299.29z M38.48,179.574h-9.62v-35.273h9.62V179.574z
			 M226.605,444.66h-35.273v-43.825h35.273V444.66z M295.015,444.66h-52.376v-43.825h52.376V444.66z M346.322,444.66h-35.273
			v-43.825h35.273V444.66z"/>
	</g>
</g>
<g>
	<g>
		<path d="M320.134,85.511c-75.147,0-136.284,61.136-136.284,136.284s61.136,136.284,136.284,136.284
			s136.284-61.136,136.284-136.284S395.281,85.511,320.134,85.511z M320.134,342.046c-66.307,0-120.25-53.945-120.25-120.251
			s53.944-120.251,120.25-120.251c66.306,0,120.251,53.945,120.251,120.251S386.439,342.046,320.134,342.046z"/>
	</g>
</g>
<g>
	<g>
		<path d="M320.134,119.716c-56.287,0-102.079,45.792-102.079,102.079s45.792,102.079,102.079,102.079
			s102.079-45.792,102.079-102.079S376.42,119.716,320.134,119.716z M320.134,307.841c-47.446,0-86.046-38.6-86.046-86.046
			s38.6-86.046,86.046-86.046s86.046,38.6,86.046,86.046S367.58,307.841,320.134,307.841z"/>
	</g>
</g>
<g>
	<g>
		<path d="M123.457,128.267c-27.995,0-50.772,22.777-50.772,50.772s22.777,50.772,50.772,50.772s50.772-22.777,50.772-50.772
			S151.453,128.267,123.457,128.267z M123.457,213.779c-19.155,0-34.739-15.583-34.739-34.739s15.584-34.739,34.739-34.739
			c19.155,0,34.739,15.583,34.739,34.739S142.612,213.779,123.457,213.779z"/>
	</g>
</g>
<g>
	<g>
		<path d="M140.56,171.023c-4.427,0-8.017,3.588-8.017,8.017c0,5.01-4.076,9.086-9.086,9.086s-9.086-4.076-9.086-9.086
			c0-4.428-3.589-8.017-8.017-8.017s-8.017,3.588-8.017,8.017c0,13.851,11.268,25.119,25.119,25.119s25.119-11.268,25.119-25.119
			C148.576,174.611,144.987,171.023,140.56,171.023z"/>
	</g>
</g>
<g>
	<g>
		<path d="M123.457,155.346c-4.427,0-8.017,3.588-8.017,8.017v8.195c0,4.428,3.589,8.017,8.017,8.017s8.017-3.588,8.017-8.017
			v-8.195C131.474,158.934,127.885,155.346,123.457,155.346z"/>
	</g>
</g>
<g>
	<g>
		<path d="M446.263,312.117c-12.672,0-22.981,10.309-22.981,22.981s10.309,22.981,22.981,22.981s22.981-10.309,22.981-22.981
			S458.935,312.117,446.263,312.117z M446.263,342.046c-3.831,0-6.948-3.117-6.948-6.948s3.117-6.948,6.948-6.948
			s6.948,3.117,6.948,6.948S450.094,342.046,446.263,342.046z"/>
	</g>
</g>
<g>
	<g>
		<path d="M157.662,265.086H97.804c-4.427,0-8.017,3.588-8.017,8.017c0,4.428,3.589,8.017,8.017,8.017h59.858
			c4.427,0,8.017-3.588,8.017-8.017C165.679,268.674,162.089,265.086,157.662,265.086z"/>
	</g>
</g>
<g>
	<g>
		<path d="M157.662,299.29H97.804c-4.427,0-8.017,3.588-8.017,8.017c0,4.428,3.589,8.017,8.017,8.017h59.858
			c4.427,0,8.017-3.588,8.017-8.017C165.679,302.878,162.089,299.29,157.662,299.29z"/>
	</g>
</g>
<g>
	<g>
		<path d="M320.134,153.921c-4.428,0-8.017,3.588-8.017,8.017c0,4.428,3.588,8.017,8.017,8.017
			c28.585,0,51.841,23.256,51.841,51.841c0,2.483-0.176,4.978-0.526,7.416c-0.626,4.383,2.418,8.444,6.8,9.072
			c0.385,0.055,0.767,0.081,1.146,0.081c3.924,0,7.353-2.884,7.926-6.882c0.455-3.186,0.687-6.445,0.687-9.687
			C388.008,184.369,357.56,153.921,320.134,153.921z"/>
	</g>
</g>
<g>
	<g>
		<path d="M375.578,245.778c-3.795-2.284-8.718-1.063-11.004,2.729c-2.268,3.764-5.013,7.236-8.16,10.318
			c-2.911,2.852-3.187,7.578-0.634,10.752c2.927,3.637,8.519,3.968,11.855,0.701c4.114-4.031,7.705-8.573,10.671-13.496
			C380.592,252.99,379.371,248.062,375.578,245.778z"/>
	</g>
</g>
</svg>